<?xml version="1.0" encoding="UTF-8" standalone="no"?>
<svg
   height="108"
   viewBox="0 -960 4320 4320"
   width="108"
   version="1.1"
   id="svg1"
   xml:space="preserve"
   xmlns="http://www.w3.org/2000/svg"
   xmlns:svg="http://www.w3.org/2000/svg"><defs
     id="defs1" /><path
     id="path1"
     d="m 1152.0001,248 c -61.5999,0 -114.2893,21.97723 -158.15602,65.84364 -43.86636,43.86682 -65.84358,96.55654 -65.84358,158.1566 V 1928.0004 c 0,61.5999 21.97722,114.2899 65.84358,158.155 43.86672,43.8684 96.55612,65.8446 158.15602,65.8446 h 2015.9998 c 61.5999,0 114.2899,-21.9762 158.1584,-65.8446 43.865,-43.8651 65.8412,-96.5551 65.8412,-158.155 V 472.00024 c 0,-61.60006 -21.9762,-114.28978 -65.8412,-158.1566 C 3282.2898,269.97723 3229.5998,248 3167.9999,248 Z m 1269.407,279.99986 c 44.3602,0 87.995,17.3397 119.2175,48.5626 31.2221,31.22284 48.7825,75.07722 48.7825,119.43742 0,44.36054 -17.5604,88.21522 -48.7825,119.43734 -31.2225,31.22292 -74.8573,48.5627 -119.2175,48.5627 -44.3603,0 -88.216,-17.33978 -119.4381,-48.5627 -31.2224,-31.22212 -48.5633,-75.0768 -48.5633,-119.43734 0,-44.3602 17.3409,-88.21458 48.5633,-119.43742 31.2221,-31.2229 75.0778,-48.5626 119.4381,-48.5626 z m 522.5932,0 c 44.3602,0 88.2155,17.3397 119.4385,48.5626 31.2215,31.22284 48.5635,75.07722 48.5635,119.43742 0,44.36054 -17.3414,88.21522 -48.5635,119.43734 -31.223,31.22292 -75.0783,48.5627 -119.4385,48.5627 -44.3602,0 -88.2159,-17.33978 -119.4386,-48.5627 -31.2215,-31.22212 -48.5626,-75.0768 -48.5626,-119.43734 0,-44.3602 17.3411,-88.21458 48.5626,-119.43742 31.2227,-31.2229 75.0784,-48.5626 119.4386,-48.5626 z m -1085.0004,4.81254 v 123.5938 h -123.5914 c 7.1442,-30.01666 22.148,-58.02576 43.9669,-79.84374 21.8193,-21.81794 49.6714,-36.66974 79.6245,-43.75006 z m 79.19,0 c 30.0147,7.08032 58.0251,21.93212 79.8411,43.75006 21.8192,21.81798 36.6711,49.82708 43.7504,79.84374 h -123.5915 z m -679.8756,6.34402 h 40.9041 c 3.2852,0 5.865,1.1906 7.6558,3.2808 2.0929,2.09104 3.0638,4.58984 3.0638,7.87544 v 115.71836 h 132.1239 V 550.31266 c 0,-3.2856 0.9736,-5.7844 3.0637,-7.87544 2.0903,-2.0902 4.6697,-3.2808 7.6558,-3.2808 h 40.4691 c 3.2855,0 5.7834,1.1906 7.8767,3.2808 2.0903,2.09104 3.2815,4.58984 3.2815,7.87544 v 291.8126 c 0,2.98638 -1.1912,5.34676 -3.2815,7.43728 -2.0933,2.09054 -4.5912,3.28114 -7.8767,3.28114 h -40.4691 c -2.9861,0 -5.5655,-1.1906 -7.6558,-3.28114 -2.0901,-2.09052 -3.0637,-4.4509 -3.0637,-7.43728 v -120.094 H 1309.938 v 120.094 c 0,2.98638 -0.9709,5.34676 -3.0638,7.43728 -1.7908,2.09054 -4.3706,3.28114 -7.6558,3.28114 h -40.9041 c -2.9895,0 -5.348,-0.8328 -7.4383,-2.62496 -2.0907,-2.0906 -3.2813,-4.80836 -3.2813,-8.09346 v -291.8126 c 0,-3.2856 1.1906,-5.7844 3.2813,-7.87544 2.0903,-2.0902 4.4488,-3.2808 7.4383,-3.2808 z m 1571.0609,114.18674 c -5.4758,0 -9.8602,1.76626 -13.3445,5.25058 -2.9864,3.48432 -4.5923,7.7095 -4.5923,12.68776 v 49.43686 c 0,4.9781 1.6059,9.20318 4.5923,12.688 3.4843,3.48432 7.8687,5.24998 13.3445,5.24998 h 229.2506 c 4.9764,0 9.2042,-1.76566 12.6859,-5.24998 3.485,-3.48482 5.251,-7.7099 5.251,-12.688 V 671.2815 c 0,-4.97826 -1.766,-9.20344 -5.251,-12.68776 -3.4817,-3.48432 -7.7095,-5.25058 -12.6859,-5.25058 z m -1094.8438,78.53178 h 124.4685 v 127.31282 c -29.9531,-7.08038 -57.8052,-21.93218 -79.6245,-43.75054 -22.7256,-22.72424 -38.0981,-52.12984 -44.844,-83.56228 z m 203.6585,0 h 124.4686 c -6.685,31.43244 -21.9019,60.83804 -44.6275,83.56228 -21.816,21.81836 -49.8264,36.67016 -79.8411,43.75054 z m -562.1902,356.12526 c 44.3602,0 88.2159,17.3402 119.4386,48.5634 31.2215,31.2225 48.5628,75.0746 48.5628,119.4378 0,44.3604 -17.3413,88.2127 -48.5628,119.4353 -31.2227,31.2221 -75.0784,48.5629 -119.4386,48.5629 -44.3602,0 -88.2146,-17.3408 -119.438,-48.5629 -31.222,-31.2226 -48.56,-75.0749 -48.56,-119.4353 0,-44.3632 17.338,-88.2153 48.56,-119.4378 31.2234,-31.2232 75.0778,-48.5634 119.438,-48.5634 z m 522.5932,0 c 44.3603,0 88.216,17.3402 119.4381,48.5634 31.2224,31.2225 48.5633,75.0746 48.5633,119.4378 0,44.3604 -17.3409,88.2127 -48.5633,119.4353 -31.2221,31.2221 -75.0778,48.5629 -119.4381,48.5629 -44.3602,0 -87.995,-17.3408 -119.2175,-48.5629 -31.2221,-31.2226 -48.7805,-75.0749 -48.7805,-119.4353 0,-44.3632 17.5584,-88.2153 48.7805,-119.4378 31.2225,-31.2232 74.8573,-48.5634 119.2175,-48.5634 z m 483.2212,4.813 v 123.592 h -123.5955 c 7.0801,-30.0153 21.9313,-58.0261 43.7504,-79.8416 21.8194,-21.8194 49.8264,-36.6712 79.8451,-43.7504 z m 79.186,0 c 29.9531,7.0792 57.8086,21.931 79.6245,43.7504 21.8189,21.8155 36.8261,49.8263 43.9709,79.8416 h -123.5954 z m 370.5624,6.3446 h 129.9366 c 24.1928,0 43.8334,3.9052 59.0654,11.3747 15.2315,7.167 26.5166,17.1251 33.687,29.9675 7.4659,12.8419 11.1556,27.8206 11.1556,44.844 0,11.3478 -2.1622,21.3062 -6.3432,29.9676 -3.8849,8.3648 -8.6847,15.1867 -14.6554,20.5621 -5.6763,5.3758 -11.3891,9.4831 -17.0648,12.4687 11.6476,5.3758 21.8829,14.3649 30.8441,26.9072 8.9603,12.5458 13.5619,27.5218 13.5619,44.844 0,17.9216 -4.1858,33.8686 -12.2478,47.9078 -8.0654,14.0371 -19.8286,25.1832 -35.6566,33.2484 -15.8309,7.7654 -35.5502,11.5936 -58.8444,11.5936 h -133.4384 c -2.9861,0 -5.5656,-0.9715 -7.6558,-3.0613 -2.0903,-2.0907 -3.0638,-4.6701 -3.0638,-7.6558 v -291.5938 c 0,-3.2852 0.9735,-6.0032 3.0638,-8.0938 2.0902,-2.0903 4.6697,-3.2809 7.6558,-3.2809 z m 51.4057,47.4663 v 81.1558 h 70.4371 c 15.8309,0 27.6735,-3.6877 35.439,-11.1542 8.0654,-7.7655 12.0307,-17.7246 12.0307,-29.9705 0,-12.5424 -3.9653,-22.2243 -12.0307,-29.091 -7.7655,-7.17 -19.6081,-10.9401 -35.439,-10.9401 z m -1621.594,66.7207 c -5.4758,0 -9.8594,1.766 -13.3414,5.2476 -2.9891,3.4855 -4.5954,7.7094 -4.5954,12.6897 v 49.4356 c 0,4.9798 1.6063,9.2042 4.5954,12.6897 3.482,3.4824 7.8656,5.2476 13.3414,5.2476 h 229.2506 c 4.9798,0 9.2042,-1.7652 12.6897,-5.2476 3.4816,-3.4855 5.2476,-7.7099 5.2476,-12.6897 v -49.4356 c 0,-4.9803 -1.766,-9.2042 -5.2476,-12.6897 -3.4855,-3.4816 -7.7099,-5.2476 -12.6897,-5.2476 z m 1621.594,61.0302 v 91.0007 h 74.8153 c 16.1271,0 28.385,-4.245 36.7472,-12.9064 8.3641,-8.9612 12.689,-19.8319 12.689,-32.3757 0,-13.1413 -4.463,-23.9319 -13.1244,-32.5928 -8.3648,-8.6609 -20.4842,-13.1258 -36.3118,-13.1258 z m -625.6227,17.5003 h 124.4686 v 127.3118 c -30.0187,-7.0797 -58.0257,-21.9315 -79.8451,-43.7504 -22.7235,-22.7233 -37.9419,-52.1289 -44.6235,-83.5614 z m 203.6546,0 h 124.4685 c -6.7459,31.4325 -22.1184,60.8381 -44.844,83.5614 -21.8159,21.8189 -49.6714,36.6707 -79.6245,43.7504 z m -804.9992,356.1239 h 1007.9982 c 28.9359,0 58.7516,13.252 78.7514,33.2524 20.0003,19.9993 33.2486,49.8149 33.2486,78.7474 0,28.9324 -13.2483,58.7515 -33.2486,78.7514 -19.9998,19.9998 -49.8155,33.2484 -78.7514,33.2484 H 1656.0009 c -28.9325,0 -58.7515,-13.2486 -78.7514,-33.2484 -20.0003,-19.9999 -33.2484,-49.819 -33.2484,-78.752 0,-28.9319 13.2481,-58.7475 33.2484,-78.7474 19.9999,-19.9998 49.8189,-33.2518 78.7514,-33.2518 z"
     style="fill:#ffffff;fill-opacity:1;stroke-width:2.8;stroke-dasharray:none" /></svg>
