<?xml version="1.0" encoding="UTF-8" standalone="no"?>
<svg
   height="108"
   viewBox="0 -960 4320 4320"
   width="108"
   version="1.1"
   id="svg1"
   sodipodi:docname="icon_launcher_source_rubik_font_not_included.svg"
   inkscape:version="1.3.2 (091e20ef0f, 2023-11-25, custom)"
   xml:space="preserve"
   inkscape:export-filename="back.svg"
   inkscape:export-xdpi="96"
   inkscape:export-ydpi="96"
   xmlns:inkscape="http://www.inkscape.org/namespaces/inkscape"
   xmlns:sodipodi="http://sodipodi.sourceforge.net/DTD/sodipodi-0.dtd"
   xmlns="http://www.w3.org/2000/svg"
   xmlns:svg="http://www.w3.org/2000/svg"><defs
     id="defs1" /><sodipodi:namedview
     id="namedview1"
     pagecolor="#ffffff"
     bordercolor="#000000"
     borderopacity="0.25"
     inkscape:showpageshadow="2"
     inkscape:pageopacity="0.0"
     inkscape:pagecheckerboard="0"
     inkscape:deskcolor="#d1d1d1"
     showgrid="false"
     showguides="true"
     inkscape:zoom="2.9143245"
     inkscape:cx="-16.470369"
     inkscape:cy="56.273761"
     inkscape:window-width="960"
     inkscape:window-height="1080"
     inkscape:window-x="0"
     inkscape:window-y="0"
     inkscape:window-maximized="0"
     inkscape:current-layer="g45"><inkscape:grid
       id="grid2"
       units="px"
       originx="0"
       originy="0"
       spacingx="40"
       spacingy="40"
       empcolor="#0099e5"
       empopacity="0.30196078"
       color="#0099e5"
       opacity="0.14901961"
       empspacing="5"
       dotted="false"
       gridanglex="30"
       gridanglez="30"
       visible="false" /></sodipodi:namedview><g
     id="g45"
     style="fill:#ffffff;fill-opacity:1"
     transform="translate(0,39.983751)"><path
       style="font-size:533.333px;line-height:3;font-family:Rubik;-inkscape-font-specification:Rubik;font-variation-settings:'wght' 750;text-align:center;letter-spacing:80px;word-spacing:-174.8px;text-anchor:middle;fill-rule:evenodd;stroke-width:302.362;stroke-linecap:round;paint-order:stroke markers fill"
       d="m 1308.5334,999.33325 q -5.8667,0 -9.0667,-3.2 -3.2,-3.73333 -3.2,-9.06666 V 638.80014 q 0,-5.86666 3.2,-9.06666 3.2,-3.73333 9.0667,-3.73333 h 27.2 q 5.8667,0 9.0667,3.73333 3.7333,3.2 3.7333,9.06666 v 147.19991 h 183.4665 V 638.80014 q 0,-5.86666 3.2,-9.06666 3.7334,-3.73333 9.0667,-3.73333 h 27.2 q 5.8666,0 9.0666,3.73333 3.7334,3.2 3.7334,9.06666 v 348.26645 q 0,5.33333 -3.7334,9.06666 -3.2,3.2 -9.0666,3.2 h -27.2 q -5.3333,0 -9.0667,-3.2 -3.2,-3.73333 -3.2,-9.06666 V 834.00002 h -183.4665 v 153.06657 q 0,5.33333 -3.7333,9.06666 -3.2,3.2 -9.0667,3.2 z"
       id="text1"
       aria-label="H" /><path
       id="rect2"
       style="font-variation-settings:'wght' 700;fill:#ffffff;fill-opacity:1;fill-rule:evenodd;stroke:none;stroke-width:248.041;stroke-linecap:round;paint-order:stroke markers fill"
       d="m 1920,612.65625 c -110.7998,0 -200,89.20022 -200,200 0,110.79978 89.2002,199.99995 200,199.99995 110.7998,0 200,-89.20017 200,-199.99995 0,-110.79978 -89.2002,-200 -200,-200 z m -28.3594,58.04687 c 0.6417,-0.05 1.2865,0 1.9532,0 h 52.8124 c 5.3334,0 9.8605,1.56563 13.5938,4.76563 3.7333,3.73333 5.625,8.50835 5.625,14.375 v 77.1875 h 77.1875 c 5.3333,0 9.8605,1.89167 13.5937,5.625 3.7334,3.73333 5.625,8.26043 5.625,13.59375 v 52.8125 c 0,5.33332 -1.8916,9.86042 -5.625,13.59375 -3.7332,3.73333 -8.2604,5.625 -13.5937,5.625 h -77.1875 v 77.1875 c 0,5.33332 -1.8917,9.86042 -5.625,13.59375 -3.7333,3.73333 -8.2604,5.625 -13.5938,5.625 h -52.8124 c -5.3334,0 -9.8605,-1.89167 -13.5938,-5.625 -3.7333,-3.73333 -5.625,-8.26043 -5.625,-13.59375 v -77.1875 h -77.1875 c -5.8667,0 -10.6417,-1.89167 -14.375,-5.625 -3.2,-3.73333 -4.8438,-8.26043 -4.8437,-13.59375 V 786.25 c -1e-4,-5.33332 1.6437,-9.86042 4.8437,-13.59375 3.7333,-3.73333 8.5083,-5.625 14.375,-5.625 h 77.1875 v -77.1875 c 0,-5.86665 1.8917,-10.64167 5.625,-14.375 3.2667,-2.8 7.149,-4.41563 11.6406,-4.76563 z" /><rect
       style="font-variation-settings:'wght' 700;fill:#ffffff;fill-opacity:1;fill-rule:evenodd;stroke:none;stroke-width:248.041;stroke-linecap:round;paint-order:stroke markers fill"
       id="rect4"
       width="400"
       height="400"
       x="2200"
       y="612.66669"
       ry="200" /><path
       id="rect5"
       style="font-variation-settings:'wght' 700;fill:#ffffff;fill-opacity:1;fill-rule:evenodd;stroke:none;stroke-width:248.041;stroke-linecap:round;paint-order:stroke markers fill"
       d="m 2880,612.65625 c -110.7998,0 -200,89.20022 -200,200 0,110.79978 89.2002,199.99995 200,199.99995 110.7998,0 200,-89.20017 200,-199.99995 0,-110.79978 -89.2002,-200 -200,-200 z m -122.8125,154.375 h 245.625 c 5.3333,0 9.8604,1.89167 13.5937,5.625 3.7334,3.73333 5.625,8.26042 5.625,13.59375 v 52.8125 c 0,5.33333 -1.8916,9.86042 -5.625,13.59375 -3.7333,3.73333 -8.2604,5.625 -13.5937,5.625 h -245.625 c -5.8667,0 -10.6417,-1.89167 -14.375,-5.625 -3.2,-3.73333 -4.8437,-8.26042 -4.8437,-13.59375 V 786.25 c 0,-5.33333 1.6437,-9.86042 4.8437,-13.59375 3.7333,-3.73333 8.5083,-5.625 14.375,-5.625 z" /><path
       id="rect7"
       style="font-variation-settings:'wght' 700;fill:#ffffff;fill-opacity:1;fill-rule:evenodd;stroke:none;stroke-width:248.041;stroke-linecap:round;paint-order:stroke markers fill"
       d="m 2400,1172.6562 c -110.7998,0 -200,89.2003 -200,200 0,110.7998 89.2002,200 200,200 110.7998,0 200,-89.2002 200,-200 0,-110.7997 -89.2002,-199.9999 -200,-200 z m -28.3594,58.0469 c 0.6417,-0.05 1.2865,0 1.9532,0 h 52.8124 c 5.3334,0 9.8605,1.5657 13.5938,4.7657 3.7333,3.7333 5.625,8.5084 5.625,14.375 v 77.1874 h 77.1875 c 5.3333,0 9.8605,1.8918 13.5937,5.625 3.7334,3.7334 5.625,8.2605 5.625,13.5938 v 52.8125 c 0,5.3333 -1.8916,9.8605 -5.625,13.5937 -3.7332,3.7334 -8.2604,5.625 -13.5937,5.625 h -77.1875 v 77.1876 c 0,5.3333 -1.8917,9.8604 -5.625,13.5937 -3.7333,3.7333 -8.2604,5.625 -13.5938,5.625 h -52.8124 c -5.3334,0 -9.8605,-1.8917 -13.5938,-5.625 -3.7333,-3.7333 -5.625,-8.2604 -5.625,-13.5937 v -77.1876 h -77.1875 c -5.8667,1e-4 -10.6417,-1.8916 -14.375,-5.625 -3.2,-3.7332 -4.8438,-8.2604 -4.8437,-13.5937 V 1346.25 c -1e-4,-5.3333 1.6437,-9.8604 4.8437,-13.5938 3.7333,-3.7332 8.5083,-5.625 14.375,-5.625 h 77.1875 v -77.1874 c 0,-5.8666 1.8917,-10.6417 5.625,-14.375 3.2667,-2.8 7.149,-4.4157 11.6406,-4.7657 z" /><rect
       style="font-variation-settings:'wght' 700;fill:#ffffff;fill-opacity:1;fill-rule:evenodd;stroke:none;stroke-width:248.041;stroke-linecap:round;paint-order:stroke markers fill"
       id="rect8"
       width="400"
       height="400"
       x="1720"
       y="1172.6667"
       ry="200" /><path
       id="rect9"
       style="font-variation-settings:'wght' 700;fill:#ffffff;fill-opacity:1;fill-rule:evenodd;stroke:none;stroke-width:248.041;stroke-linecap:round;paint-order:stroke markers fill"
       d="m 1440,1172.6562 c -110.7998,0 -200,89.2003 -200,200 0,110.7998 89.2002,200 200,200 110.7998,0 200,-89.2002 200,-200 0,-110.7997 -89.2002,-199.9999 -200,-200 z m -122.8125,154.375 h 245.625 c 5.3333,0 9.8604,1.8917 13.5937,5.625 3.7334,3.7334 5.6251,8.2605 5.625,13.5938 v 52.8125 c 0,5.3333 -1.8916,9.8604 -5.625,13.5937 -3.7333,3.7334 -8.2604,5.6251 -13.5937,5.625 h -245.625 c -5.8667,0 -10.6417,-1.8916 -14.375,-5.625 -3.2,-3.7333 -4.8437,-8.2604 -4.8437,-13.5937 V 1346.25 c 0,-5.3333 1.6437,-9.8604 4.8437,-13.5938 3.7333,-3.7333 8.5083,-5.625 14.375,-5.625 z" /><rect
       style="font-variation-settings:'wght' 700;fill:#ffffff;fill-opacity:1;fill-rule:evenodd;stroke:none;stroke-width:303.786;stroke-linecap:round;paint-order:stroke markers fill"
       id="rect10"
       width="1200"
       height="200"
       x="1560"
       y="1752.6667"
       ry="100" /><path
       d="m 2753.0668,1559.3333 q -5.8667,0 -9.0667,-3.2 -3.2,-3.7334 -3.2,-9.0667 v -348.2665 q 0,-5.8666 3.2,-9.0666 3.2,-3.7334 9.0667,-3.7334 H 2899.2 q 40,0 65.0667,13.3334 25.6,12.8 37.3333,35.2 12.2666,22.3999 12.2666,50.1333 0,21.8666 -7.4666,37.8666 -6.9333,15.4667 -17.6,25.6 -10.6667,9.6 -20.8,14.9333 20.8,10.1333 36.8,33.0667 16.5333,22.9333 16.5333,55.4666 0,29.3333 -13.3333,53.8666 -13.3333,24.5333 -40,39.4667 -26.1333,14.4 -64.5333,14.4 z m 40,-43.2 h 103.4666 q 34.1333,0 52.8,-18.6667 Q 2968,1478.8 2968,1451.6 q 0,-28.2667 -18.6666,-46.4 -18.6667,-18.6666 -52.8,-18.6666 h -103.4666 z m 0,-172.2666 h 98.1333 q 34.1333,0 51.7333,-15.4666 17.5999,-16 17.5999,-43.2 0,-27.2 -17.5999,-41.6 -17.6,-14.4 -51.7333,-14.4 h -98.1333 z"
       id="text16"
       style="font-size:533.333px;line-height:3;font-family:Rubik;-inkscape-font-specification:'Rubik @wght=750';font-variation-settings:'wght' 750;text-align:center;letter-spacing:80px;word-spacing:-174.8px;text-anchor:middle;fill-rule:evenodd;stroke-width:302.362;stroke-linecap:round;paint-order:stroke markers fill"
       aria-label="B" /></g></svg>
