<?xml version="1.0" encoding="UTF-8" standalone="no"?>
<svg
   height="108"
   viewBox="0 -960 4320 4320"
   width="108"
   version="1.1"
   id="svg1"
   sodipodi:docname="icon_launcher_source_rubik_font_not_included.svg"
   inkscape:version="1.3.2 (091e20ef0f, 2023-11-25, custom)"
   xml:space="preserve"
   inkscape:export-filename="fore.png"
   inkscape:export-xdpi="28.444445"
   inkscape:export-ydpi="28.444445"
   xmlns:inkscape="http://www.inkscape.org/namespaces/inkscape"
   xmlns:sodipodi="http://sodipodi.sourceforge.net/DTD/sodipodi-0.dtd"
   xmlns:xlink="http://www.w3.org/1999/xlink"
   xmlns="http://www.w3.org/2000/svg"
   xmlns:svg="http://www.w3.org/2000/svg"><defs
     id="defs1"><linearGradient
       xlink:href="#linearGradient2"
       id="linearGradient3"
       x1="25.334873"
       y1="-941.5329"
       x2="4298.2588"
       y2="3369.6423"
       gradientUnits="userSpaceOnUse"
       gradientTransform="matrix(1.0055421,0,0,0.995401,-3.4226,12.287001)" /><linearGradient
       id="linearGradient2"><stop
         style="stop-color:#cb2852;stop-opacity:1;"
         offset="0"
         id="stop2" /><stop
         style="stop-color:#7473e4;stop-opacity:1;"
         offset="1"
         id="stop3" /></linearGradient><linearGradient
       inkscape:collect="always"
       xlink:href="#linearGradient2"
       id="linearGradient50"
       x1="1240"
       y1="612.65625"
       x2="3080"
       y2="1952.6667"
       gradientUnits="userSpaceOnUse" /></defs><sodipodi:namedview
     id="namedview1"
     pagecolor="#ffffff"
     bordercolor="#000000"
     borderopacity="0.25"
     inkscape:showpageshadow="2"
     inkscape:pageopacity="0.0"
     inkscape:pagecheckerboard="0"
     inkscape:deskcolor="#d1d1d1"
     showgrid="false"
     showguides="true"
     inkscape:zoom="2.9143245"
     inkscape:cx="-16.470369"
     inkscape:cy="56.273761"
     inkscape:window-width="960"
     inkscape:window-height="1080"
     inkscape:window-x="0"
     inkscape:window-y="0"
     inkscape:window-maximized="0"
     inkscape:current-layer="g45"><inkscape:grid
       id="grid2"
       units="px"
       originx="0"
       originy="0"
       spacingx="40"
       spacingy="40"
       empcolor="#0099e5"
       empopacity="0.30196078"
       color="#0099e5"
       opacity="0.14901961"
       empspacing="5"
       dotted="false"
       gridanglex="30"
       gridanglez="30"
       visible="false" /></sodipodi:namedview><path
     id="gradient"
     style="fill:url(#linearGradient3);stroke-width:0;stroke-linejoin:round;stroke-dasharray:none;paint-order:stroke markers fill"
     d="M 0,-960 H 4320 V 3360 H 0 Z"
     clip-path="none" /><g
     id="g45"
     style="fill:#ffffff;fill-opacity:1"
     transform="translate(0,39.983751)"><text
       xml:space="preserve"
       style="font-style:normal;font-variant:normal;font-weight:normal;font-stretch:normal;font-size:533.333px;line-height:3;font-family:Rubik;-inkscape-font-specification:'Rubik, @wght=750';font-variant-ligatures:normal;font-variant-caps:normal;font-variant-numeric:normal;font-variant-east-asian:normal;font-variation-settings:'wght' 750;text-align:center;letter-spacing:80px;word-spacing:-174.8px;text-anchor:middle;fill:#ffffff;fill-opacity:1;fill-rule:evenodd;stroke:none;stroke-width:302.362;stroke-linecap:round;paint-order:stroke markers fill"
       x="1440.2668"
       y="999.33325"
       id="text1"><tspan
         sodipodi:role="line"
         id="tspan1"
         style="font-style:normal;font-variant:normal;font-weight:normal;font-stretch:normal;font-size:533.333px;font-family:Rubik;-inkscape-font-specification:Rubik;font-variant-ligatures:normal;font-variant-caps:normal;font-variant-numeric:normal;font-variant-east-asian:normal;fill:#ffffff;fill-opacity:1;stroke:none;stroke-width:302.362;text-anchor:middle;text-align:center"
         x="1480.2668"
         y="999.33325">H</tspan></text><path
       id="rect2"
       style="font-variation-settings:'wght' 700;fill:#ffffff;fill-opacity:1;fill-rule:evenodd;stroke:none;stroke-width:248.041;stroke-linecap:round;paint-order:stroke markers fill"
       d="m 1920,612.65625 c -110.7998,0 -200,89.20022 -200,200 0,110.79978 89.2002,199.99995 200,199.99995 110.7998,0 200,-89.20017 200,-199.99995 0,-110.79978 -89.2002,-200 -200,-200 z m -28.3594,58.04687 c 0.6417,-0.05 1.2865,0 1.9532,0 h 52.8124 c 5.3334,0 9.8605,1.56563 13.5938,4.76563 3.7333,3.73333 5.625,8.50835 5.625,14.375 v 77.1875 h 77.1875 c 5.3333,0 9.8605,1.89167 13.5937,5.625 3.7334,3.73333 5.625,8.26043 5.625,13.59375 v 52.8125 c 0,5.33332 -1.8916,9.86042 -5.625,13.59375 -3.7332,3.73333 -8.2604,5.625 -13.5937,5.625 h -77.1875 v 77.1875 c 0,5.33332 -1.8917,9.86042 -5.625,13.59375 -3.7333,3.73333 -8.2604,5.625 -13.5938,5.625 h -52.8124 c -5.3334,0 -9.8605,-1.89167 -13.5938,-5.625 -3.7333,-3.73333 -5.625,-8.26043 -5.625,-13.59375 v -77.1875 h -77.1875 c -5.8667,0 -10.6417,-1.89167 -14.375,-5.625 -3.2,-3.73333 -4.8438,-8.26043 -4.8437,-13.59375 V 786.25 c -1e-4,-5.33332 1.6437,-9.86042 4.8437,-13.59375 3.7333,-3.73333 8.5083,-5.625 14.375,-5.625 h 77.1875 v -77.1875 c 0,-5.86665 1.8917,-10.64167 5.625,-14.375 3.2667,-2.8 7.149,-4.41563 11.6406,-4.76563 z" /><rect
       style="font-variation-settings:'wght' 700;fill:#ffffff;fill-opacity:1;fill-rule:evenodd;stroke:none;stroke-width:248.041;stroke-linecap:round;paint-order:stroke markers fill"
       id="rect4"
       width="400"
       height="400"
       x="2200"
       y="612.66669"
       ry="200" /><path
       id="rect5"
       style="font-variation-settings:'wght' 700;fill:#ffffff;fill-opacity:1;fill-rule:evenodd;stroke:none;stroke-width:248.041;stroke-linecap:round;paint-order:stroke markers fill"
       d="m 2880,612.65625 c -110.7998,0 -200,89.20022 -200,200 0,110.79978 89.2002,199.99995 200,199.99995 110.7998,0 200,-89.20017 200,-199.99995 0,-110.79978 -89.2002,-200 -200,-200 z m -122.8125,154.375 h 245.625 c 5.3333,0 9.8604,1.89167 13.5937,5.625 3.7334,3.73333 5.625,8.26042 5.625,13.59375 v 52.8125 c 0,5.33333 -1.8916,9.86042 -5.625,13.59375 -3.7333,3.73333 -8.2604,5.625 -13.5937,5.625 h -245.625 c -5.8667,0 -10.6417,-1.89167 -14.375,-5.625 -3.2,-3.73333 -4.8437,-8.26042 -4.8437,-13.59375 V 786.25 c 0,-5.33333 1.6437,-9.86042 4.8437,-13.59375 3.7333,-3.73333 8.5083,-5.625 14.375,-5.625 z" /><path
       id="rect7"
       style="font-variation-settings:'wght' 700;fill:#ffffff;fill-opacity:1;fill-rule:evenodd;stroke:none;stroke-width:248.041;stroke-linecap:round;paint-order:stroke markers fill"
       d="m 2400,1172.6562 c -110.7998,0 -200,89.2003 -200,200 0,110.7998 89.2002,200 200,200 110.7998,0 200,-89.2002 200,-200 0,-110.7997 -89.2002,-199.9999 -200,-200 z m -28.3594,58.0469 c 0.6417,-0.05 1.2865,0 1.9532,0 h 52.8124 c 5.3334,0 9.8605,1.5657 13.5938,4.7657 3.7333,3.7333 5.625,8.5084 5.625,14.375 v 77.1874 h 77.1875 c 5.3333,0 9.8605,1.8918 13.5937,5.625 3.7334,3.7334 5.625,8.2605 5.625,13.5938 v 52.8125 c 0,5.3333 -1.8916,9.8605 -5.625,13.5937 -3.7332,3.7334 -8.2604,5.625 -13.5937,5.625 h -77.1875 v 77.1876 c 0,5.3333 -1.8917,9.8604 -5.625,13.5937 -3.7333,3.7333 -8.2604,5.625 -13.5938,5.625 h -52.8124 c -5.3334,0 -9.8605,-1.8917 -13.5938,-5.625 -3.7333,-3.7333 -5.625,-8.2604 -5.625,-13.5937 v -77.1876 h -77.1875 c -5.8667,1e-4 -10.6417,-1.8916 -14.375,-5.625 -3.2,-3.7332 -4.8438,-8.2604 -4.8437,-13.5937 V 1346.25 c -1e-4,-5.3333 1.6437,-9.8604 4.8437,-13.5938 3.7333,-3.7332 8.5083,-5.625 14.375,-5.625 h 77.1875 v -77.1874 c 0,-5.8666 1.8917,-10.6417 5.625,-14.375 3.2667,-2.8 7.149,-4.4157 11.6406,-4.7657 z" /><rect
       style="font-variation-settings:'wght' 700;fill:#ffffff;fill-opacity:1;fill-rule:evenodd;stroke:none;stroke-width:248.041;stroke-linecap:round;paint-order:stroke markers fill"
       id="rect8"
       width="400"
       height="400"
       x="1720"
       y="1172.6667"
       ry="200" /><path
       id="rect9"
       style="font-variation-settings:'wght' 700;fill:#ffffff;fill-opacity:1;fill-rule:evenodd;stroke:none;stroke-width:248.041;stroke-linecap:round;paint-order:stroke markers fill"
       d="m 1440,1172.6562 c -110.7998,0 -200,89.2003 -200,200 0,110.7998 89.2002,200 200,200 110.7998,0 200,-89.2002 200,-200 0,-110.7997 -89.2002,-199.9999 -200,-200 z m -122.8125,154.375 h 245.625 c 5.3333,0 9.8604,1.8917 13.5937,5.625 3.7334,3.7334 5.6251,8.2605 5.625,13.5938 v 52.8125 c 0,5.3333 -1.8916,9.8604 -5.625,13.5937 -3.7333,3.7334 -8.2604,5.6251 -13.5937,5.625 h -245.625 c -5.8667,0 -10.6417,-1.8916 -14.375,-5.625 -3.2,-3.7333 -4.8437,-8.2604 -4.8437,-13.5937 V 1346.25 c 0,-5.3333 1.6437,-9.8604 4.8437,-13.5938 3.7333,-3.7333 8.5083,-5.625 14.375,-5.625 z" /><rect
       style="font-variation-settings:'wght' 700;fill:#ffffff;fill-opacity:1;fill-rule:evenodd;stroke:none;stroke-width:303.786;stroke-linecap:round;paint-order:stroke markers fill"
       id="rect10"
       width="1200"
       height="200"
       x="1560"
       y="1752.6667"
       ry="100" /><text
       xml:space="preserve"
       style="font-style:normal;font-variant:normal;font-weight:normal;font-stretch:normal;font-size:533.333px;line-height:3;font-family:Rubik;-inkscape-font-specification:'Rubik @wght=750';font-variant-ligatures:normal;font-variant-caps:normal;font-variant-numeric:normal;font-variant-east-asian:normal;text-align:center;letter-spacing:80px;word-spacing:-174.8px;text-anchor:middle;fill:#ffffff;fill-opacity:1;fill-rule:evenodd;stroke:none;stroke-width:302.362;stroke-linecap:round;paint-order:stroke markers fill;font-variation-settings:'wght' 750"
       x="2872.5332"
       y="1559.3333"
       id="text16"><tspan
         sodipodi:role="line"
         id="tspan16"
         style="font-style:normal;font-variant:normal;font-weight:normal;font-stretch:normal;font-size:533.333px;font-family:Rubik;-inkscape-font-specification:'Rubik @wght=750';font-variant-ligatures:normal;font-variant-caps:normal;font-variant-numeric:normal;font-variant-east-asian:normal;fill:#ffffff;fill-opacity:1;stroke:none;stroke-width:302.362;font-variation-settings:'wght' 750"
         x="2912.5332"
         y="1559.3333">B</tspan></text></g><g
     id="g49"
     style="fill:url(#linearGradient50);fill-opacity:1"
     transform="translate(0,39.9837)" /></svg>
